{"title":"Natl.Lampoon's.Christmas.Vacation.1989.1080p.BD.REMUX.VC-1.AC3-B","uid":10820278,"size":14190237523,"categoryP":"video","categoryS":"hd___movies","magnet":"?xt=urn:btih:ba720a9876ff43bbd0e82e167cea61c37a244c99&amp;dn=Natl.Lampoon%27s.Christmas.Vacation.1989.1080p.BD.REMUX.VC-1.AC3-B&amp;tr=udp%3A%2F%2Ftracker.openbittorrent.com%3A80&amp;tr=udp%3A%2F%2Fopen.demonii.com%3A1337&amp;tr=udp%3A%2F%2Ftracker.coppersurfer.tk%3A6969&amp;tr=udp%3A%2F%2Fexodus.desync.com%3A6969","seeders":1,"leechers":4,"uploader":"ataion","files":1,"time":1408521287,"description":" &lt;a href=&quot;http://www.imdb.com/title/tt0097958/&quot; rel=&quot;nofollow&quot; target=&quot;_NEW&quot;&gt;http://www.imdb.com/title/tt0097958/&lt;/a&gt; \n\n\nNational Lampoon's Christmas Vacation is a 1989 Christmas comedy film directed by Jeremiah S. Chechik. It is the third installment in National Lampoon's Vacation film series, and was written by John Hughes, based on his short story in National Lampoon magazine, &quot;Christmas '59&quot;. The film stars Chevy Chase, Beverly D'Angelo and Randy Quaid, with Juliette Lewis and Johnny Galecki as the Griswold children Audrey and Rusty, respectively.\n\nSince its release in 1989, Christmas Vacation has often been labeled as a modern Christmas classic\n\nVideo\nID                                       : 1\nFormat                                   : VC-1\nFormat profile                           : Advanced@L3\nCodec ID                                 : V_MS/VFW/FOURCC / WVC1\nCodec ID/Hint                            : Microsoft\nDuration                                 : 1h 37mn\nBit rate                                 : 18.3 Mbps\nWidth                                    : 1 920 pixels\nHeight                                   : 1 080 pixels\nDisplay aspect ratio                     : 16:9\nFrame rate mode                          : Constant\nFrame rate                               : 23.976 fps\nColor space                              : YUV\nChroma subsampling                       : 4:2:0\nBit depth                                : 8 bits\nScan type                                : Progressive\nCompression mode                         : Lossy\nBits/(Pixel*Frame)                       : 0.368\nStream size                              : 12.4 GiB (94%)\nLanguage                                 : English\nDefault                                  : No\nForced                                   : No\n\nAudio #1\nID                                       : 2\nFormat                                   : AC-3\nFormat/Info                              : Audio Coding 3\nFormat profile                           : Dolby Digital\nMode extension                           : CM (complete main)\nFormat settings, Endianness              : Big\nCodec ID                                 : A_AC3\nDuration                                 : 1h 37mn\nBit rate mode                            : Constant\nBit rate                                 : 192 Kbps\nChannel(s)                               : 2 channels\nChannel positions                        : Front: L R\nSampling rate                            : 48.0 KHz\nBit depth                                : 16 bits\nCompression mode                         : Lossy\nStream size                              : 133 MiB (1%)\nTitle                                    : Stereo\nLanguage                                 : English\nDefault                                  : Yes\nForced                                   : No\n\nAudio #2\nID                                       : 3\nFormat                                   : AC-3\nFormat/Info                              : Audio Coding 3\nMode extension                           : CM (complete main)\nFormat settings, Endianness              : Big\nCodec ID                                 : A_AC3\nDuration                                 : 1h 37mn\nBit rate mode                            : Constant\nBit rate                                 : 192 Kbps\nChannel(s)                               : 1 channel\nChannel positions                        : Front: C\nSampling rate                            : 48.0 KHz\nBit depth                                : 16 bits\nCompression mode                         : Lossy\nStream size                              : 133 MiB (1%)\nTitle                                    : Mono\nLanguage                                 : French\nDefault                                  : No\nForced                                   : No\n\nAudio #3\nID                                       : 4\nFormat                                   : AC-3\nFormat/Info                              : Audio Coding 3\nMode extension                           : CM (complete main)\nFormat settings, Endianness              : Big\nCodec ID                                 : A_AC3\nDuration                                 : 1h 37mn\nBit rate mode                            : Constant\nBit rate                                 : 192 Kbps\nChannel(s)                               : 1 channel\nChannel positions                        : Front: C\nSampling rate                            : 48.0 KHz\nBit depth                                : 16 bits\nCompression mode                         : Lossy\nStream size                              : 133 MiB (1%)\nTitle                                    : Mono\nLanguage                                 : Spanish\nDefault                                  : No\nForced                                   : No\n\nAudio #4\nID                                       : 5\nFormat                                   : AC-3\nFormat/Info                              : Audio Coding 3\nFormat profile                           : Dolby Digital\nMode extension                           : CM (complete main)\nFormat settings, Endianness              : Big\nCodec ID                                 : A_AC3\nDuration                                 : 1h 37mn\nBit rate mode                            : Constant\nBit rate                                 : 192 Kbps\nChannel(s)                               : 2 channels\nChannel positions                        : Front: L R\nSampling rate                            : 48.0 KHz\nBit depth                                : 16 bits\nCompression mode                         : Lossy\nStream size                              : 133 MiB (1%)\nTitle                                    : Stereo\nLanguage                                 : English\nDefault                                  : No\nForced                                   : No","torrent":{"xt":"urn:btih:ba720a9876ff43bbd0e82e167cea61c37a244c99","amp;dn":"Natl.Lampoon%27s.Christmas.Vacation.1989.1080p.BD.REMUX.VC-1.AC3-B","amp;tr":["udp%3A%2F%2Ftracker.openbittorrent.com%3A80","udp%3A%2F%2Fopen.demonii.com%3A1337","udp%3A%2F%2Ftracker.coppersurfer.tk%3A6969","udp%3A%2F%2Fexodus.desync.com%3A6969"],"infoHash":"ba720a9876ff43bbd0e82e167cea61c37a244c99","infoHashBuffer":{"type":"Buffer","data":[186,114,10,152,118,255,67,187,208,232,46,22,124,234,97,195,122,36,76,153]},"announce":[],"urlList":[]}}